<?xml version="1.0" encoding="UTF-8" standalone="no"?>
<!-- Generator: Adobe Illustrator 17.0.0, SVG Export Plug-In . SVG Version: 6.00 Build 0)  -->

<svg
   xmlns:dc="http://purl.org/dc/elements/1.1/"
   xmlns:cc="http://creativecommons.org/ns#"
   xmlns:rdf="http://www.w3.org/1999/02/22-rdf-syntax-ns#"
   xmlns:svg="http://www.w3.org/2000/svg"
   xmlns="http://www.w3.org/2000/svg"
   xmlns:sodipodi="http://sodipodi.sourceforge.net/DTD/sodipodi-0.dtd"
   xmlns:inkscape="http://www.inkscape.org/namespaces/inkscape"
   version="1.1"
   id="Layer_1"
   x="0px"
   y="0px"
   width="252"
   height="292"
   viewBox="0 0 251.99999 292"
   enable-background="new 0 0 135.264 30"
   xml:space="preserve"
   sodipodi:docname="nounzein.svg"
   inkscape:version="0.92.2 2405546, 2018-03-11"><metadata
   id="metadata31"><rdf:RDF><cc:Work
       rdf:about=""><dc:format>image/svg+xml</dc:format><dc:type
         rdf:resource="http://purl.org/dc/dcmitype/StillImage" /><dc:title></dc:title></cc:Work></rdf:RDF></metadata><defs
   id="defs29" /><sodipodi:namedview
   pagecolor="#ffffff"
   bordercolor="#666666"
   borderopacity="1"
   objecttolerance="10"
   gridtolerance="10"
   guidetolerance="10"
   inkscape:pageopacity="0"
   inkscape:pageshadow="2"
   inkscape:window-width="1364"
   inkscape:window-height="726"
   id="namedview27"
   showgrid="false"
   fit-margin-top="1"
   fit-margin-left="1"
   fit-margin-right="1"
   fit-margin-bottom="1"
   inkscape:zoom="3.7112607"
   inkscape:cx="66.167775"
   inkscape:cy="16.02908"
   inkscape:window-x="0"
   inkscape:window-y="41"
   inkscape:window-maximized="0"
   inkscape:current-layer="Layer_1" />
<g
   id="g6"
   transform="matrix(9.6461196,0,0,9.6573057,-22.770248,1)">
	<path
   d="m 17.457,0 c 0.873,0.422 1.28,1.309 2.026,1.857 C 19.101,2.882 18.461,3.65 17.795,4.39 16.712,4.122 16.303,3.181 15.431,2.701 15.882,1.577 16.751,0.909 17.457,0 Z"
   id="path2"
   inkscape:connector-curvature="0"
   style="fill:#7b2118" />
	<path
   d="m 13.806,20.868 c 2.283,0.169 10.705,0.683 11.522,-2.203 0.667,-2.357 -1.668,-4.577 -3.106,-5.737 0.101,-1.306 0.078,-1.501 0.203,-2.783 1.561,1.561 4.453,3.662 5.453,5.994 3.09,7.205 -8.794,7.845 -15.264,7.092 -4.873,5.467 -7.746,6.81 -10.005,6.798 0.473,-0.486 1.383,-1.065 3.216,-2.74 1.973,-1.804 2.31,-2.536 3.854,-4.441 C 6.98,22.226 2.762,20.907 2.61,19.306 1.483,14.684 7.2,12.963 9.137,9.384 c 0.358,0.988 0.803,2.403 0.578,2.741 -0.937,1.406 -4.237,3.438 -3.769,5.936 0.362,1.933 2.881,2.17 5.217,2.467 3.174,-4.231 4.358,-7.163 4.961,-9.455 -0.319,-0.319 -0.773,-0.752 -1.336,-1.259 0.67,-0.925 1.198,-1.494 1.947,-2.794 1.28,1.004 2.114,1.59 3.07,2.399 -1.041,2.616 -5.238,10.815 -5.999,11.449 z"
   id="path4"
   inkscape:connector-curvature="0"
   style="fill:#7b2118" />
</g>

</svg>